{"title":"Ikimono no kiroku [I Live in Fear] (Kurosawa, 1955)","uid":6979984,"size":4701681135,"categoryP":"video","categoryS":"hd___movies","magnet":"?xt=urn:btih:18cc91abcde7da8ad076bf821d4358fe8f3e7404&amp;dn=Ikimono+no+kiroku+%5BI+Live+in+Fear%5D+%28Kurosawa%2C+1955%29&amp;tr=udp%3A%2F%2Ftracker.openbittorrent.com%3A80&amp;tr=udp%3A%2F%2Fopen.demonii.com%3A1337&amp;tr=udp%3A%2F%2Ftracker.coppersurfer.tk%3A6969&amp;tr=udp%3A%2F%2Fexodus.desync.com%3A6969","seeders":3,"leechers":1,"uploader":"mfccorrea","files":3,"time":1327367306,"description":"When an elderly, wealthy man decides that nuclear holocaust is eminent in his country, he decides to move his family to Brazil at all costs--a place which, for some mysterious reason, he believes to be safe. His family refuses to move because they fear that the move will jeopardize their financial well-being. Nakajima burns down his foundry to force them to go to Brazil but, instead, they go to the courts and have him declared mentally incompetent. After several more increasingly irrational acts, he is finally placed in a mental asylum, where he sits staring at the sun, believing that he is on another planet and the sun is the raging inferno created by the Earth when it went up in the nuclear holocaust--vindicating his actions. A strong indictment against the inherent evils of nuclear warfare, it is also the story of a man's love and dedication to his family in the face of his own fears and endangerment.\n\n   General\n      Complete name : I Live in Fear.mkv\n      Format : Matroska\n      File size : 4.38 GiB\n      Duration : 1h 43mn\n      Overall bit rate : 6 066 Kbps\n      Movie name : Akira Kurosawa-I Live in Fear (1955)\n      Encoded date : UTC 2012-01-01 22:39:30\n      Writing application : mkvmerge v5.2.0 ('I can't explain') built on Dec 18 2011 18:12:03\n      Writing library : libebml v1.2.3 + libmatroska v1.3.0\n   Video #1\n      ID : 1\n      Format : AVC\n      Format/Info : Advanced Video Codec\n      Format profile : &lt;a class=&quot;__cf_email__&quot; href=&quot;/cdn-cgi/l/email-protection&quot; data-cfemail=&quot;4d05242a250d0179637c&quot;&gt;[email&amp;#160;protected]&lt;/a&gt;&lt;script cf-hash='f9e31' type=&quot;text/javascript&quot;&gt;\n/* &lt;![CDATA[ */!function(){try{var t=&quot;currentScript&quot;in document?document.currentScript:function(){for(var t=document.getElementsByTagName(&quot;script&quot;),e=t.length;e--;)if(t[e].getAttribute(&quot;cf-hash&quot;))return t[e]}();if(t&amp;&amp;t.previousSibling){var e,r,n,i,c=t.previousSibling,a=c.getAttribute(&quot;data-cfemail&quot;);if(a){for(e=&quot;&quot;,r=parseInt(a.substr(0,2),16),n=2;a.length-n;n+=2)i=parseInt(a.substr(n,2),16)^r,e+=String.fromCharCode(i);e=document.createTextNode(e),c.parentNode.replaceChild(e,c)}}}catch(u){}}();/* ]]&gt; */&lt;/script&gt;\n      Format settings, CABAC : Yes\n      Format settings, ReFrames : 5 frames\n      Muxing mode : Container profile=&lt;a class=&quot;__cf_email__&quot; href=&quot;/cdn-cgi/l/email-protection&quot; data-cfemail=&quot;5a0f343134352d341a6e746b&quot;&gt;[email&amp;#160;protected]&lt;/a&gt;&lt;script cf-hash='f9e31' type=&quot;text/javascript&quot;&gt;\n/* &lt;![CDATA[ */!function(){try{var t=&quot;currentScript&quot;in document?document.currentScript:function(){for(var t=document.getElementsByTagName(&quot;script&quot;),e=t.length;e--;)if(t[e].getAttribute(&quot;cf-hash&quot;))return t[e]}();if(t&amp;&amp;t.previousSibling){var e,r,n,i,c=t.previousSibling,a=c.getAttribute(&quot;data-cfemail&quot;);if(a){for(e=&quot;&quot;,r=parseInt(a.substr(0,2),16),n=2;a.length-n;n+=2)i=parseInt(a.substr(n,2),16)^r,e+=String.fromCharCode(i);e=document.createTextNode(e),c.parentNode.replaceChild(e,c)}}}catch(u){}}();/* ]]&gt; */&lt;/script&gt;\n      Codec ID : V_MPEG4/ISO/AVC\n      Duration : 1h 43mn\n      Bit rate : 5 498 Kbps\n      Nominal bit rate : 5 618 Kbps\n      Width : 960 pixels\n      Height : 720 pixels\n      Display aspect ratio : 4:3\n      Frame rate : 23.976 fps\n      Resolution : 24 bits\n      Colorimetry : 4:2:0\n      Scan type : Progressive\n      Bits/(Pixel*Frame) : 0.332\n      Stream size : 3.96 GiB (91%)\n      Writing library : x264 core 114 r1924 08d04a4     \n   Audio #2\n      ID : 2\n      Format : AC-3\n      Format/Info : Audio Coding 3\n      Codec ID : A_AC3\n      Duration : 1h 43mn\n      Bit rate mode : Constant\n      Bit rate : 448 Kbps\n      Channel(s) : 2 channels\n      Channel positions : L R\n      Sampling rate : 48.0 KHz\n      Stream size : 331 MiB (7%)\n      Language : Japanese\n   Text #3\n      ID : 3\n      Format : UTF-8\n      Codec ID : S_TEXT/UTF8\n      Codec ID/Info : UTF-8 Plain Text\n &lt;a href=&quot;\nhttp://www.imdb.com/title/tt0048198/&quot; rel=&quot;nofollow&quot; target=&quot;_NEW&quot;&gt;\nhttp://www.imdb.com/title/tt0048198/&lt;/a&gt;\n\nLanguage: Japanese\nSubtitles: English (in mkv), Spanish and Portuguese (srt)\n\nPosted originally at KG by EceAyhan, whom we thank","torrent":{"xt":"urn:btih:18cc91abcde7da8ad076bf821d4358fe8f3e7404","amp;dn":"Ikimono+no+kiroku+%5BI+Live+in+Fear%5D+%28Kurosawa%2C+1955%29","amp;tr":["udp%3A%2F%2Ftracker.openbittorrent.com%3A80","udp%3A%2F%2Fopen.demonii.com%3A1337","udp%3A%2F%2Ftracker.coppersurfer.tk%3A6969","udp%3A%2F%2Fexodus.desync.com%3A6969"],"infoHash":"18cc91abcde7da8ad076bf821d4358fe8f3e7404","infoHashBuffer":{"type":"Buffer","data":[24,204,145,171,205,231,218,138,208,118,191,130,29,67,88,254,143,62,116,4]},"announce":[],"urlList":[]}}